<?xml version="1.0" encoding="utf-8"?>
<!-- Generator: Adobe Illustrator 23.0.6, SVG Export Plug-In . SVG Version: 6.00 Build 0)  -->
<svg version="1.1" id="Capa_1" xmlns="http://www.w3.org/2000/svg" xmlns:xlink="http://www.w3.org/1999/xlink" x="0px" y="0px"
	 width="370px" height="512px" viewBox="0 0 370 512" style="enable-background:new 0 0 370 512;" xml:space="preserve">
<style type="text/css">
	.st0{fill:#939393;}
</style>
<g>
	<g>
		<g>
			<path class="st0" d="M185,0C85.7,0,5,80.7,5,180c0,33.5,9.3,66.3,26.9,94.7l142.9,230.3c2.7,4.4,7.6,7.1,12.7,7.1
				c0,0,0.1,0,0.1,0c5.2,0,10.1-2.8,12.8-7.3l139.2-232.5c16.6-27.8,25.4-59.7,25.4-92.2C365,80.7,284.3,0,185,0z M313.9,256.8
				L187.3,468.2L57.4,258.8c-14.6-23.6-22.6-50.9-22.6-78.8c0-82.7,67.5-150.2,150.2-150.2S335.1,97.3,335.1,180
				C335.1,207.1,327.7,233.7,313.9,256.8z"/>
		</g>
	</g>
	<g>
		<g>
			<path class="st0" d="M185,90c-49.6,0-90,40.4-90,90c0,49.3,39.7,90,90,90c50.9,0,90-41.2,90-90C275,130.4,234.6,90,185,90z
				 M185,240.2c-33.3,0-60.2-27-60.2-60.2c0-33.1,27.1-60.2,60.2-60.2s60.1,27.1,60.1,60.2C245.1,212.7,218.8,240.2,185,240.2z"/>
		</g>
	</g>
</g>
</svg>
